# xmcd
#
# Track frame offsets:
#	183
#	11093
#	28080
#	43153
#	56225
#	74163
#	84335
#	96220
#	111630
#	120578
#	137118
#	149393
#	165730
#	178133
#	190578
#	202953
#	221160
#	232993
#	242293
#	256263
#	266388
#	279320
#	293098
#	304303
#
# Disc length: 4198 seconds
#
# Revision: 0
# Processed by: cddbd v1.5PL3 Copyright (c) Steve Scherf et al.
# Submitted via: dBpowerAMP V4.0
#
DISCID=6b106418
DTITLE=Jack Jersey - In the still of the night
DYEAR=1900
DGENRE=Country
TTITLE0=In the still of the night
TTITLE1=I'm calling
TTITLE2=Pappa was a poor man
TTITLE3=If you leave me
TTITLE4=In old mexico
TTITLE5=Melancholy man
TTITLE6=Don't break this heart
TTITLE7=Answer me
TTITLE8=Mary
TTITLE9=Love me petunia
TTITLE10=No regrets
TTITLE11=Conny
TTITLE12=Me and bobby mc-gee
TTITLE13=After sweet memories
TTITLE14=No other love
TTITLE15=Gone girl
TTITLE16=Sing me back home
TTITLE17=The reasons why
TTITLE18=Help me make it thru the night
TTITLE19=Love lovin' lover
TTITLE20=Let it be me
TTITLE21=How many
TTITLE22=Hello darling
TTITLE23=Mary jane
EXTD=Jack Jersey sings country
EXTT0=
EXTT1=
EXTT2=
EXTT3=
EXTT4=
EXTT5=
EXTT6=
EXTT7=
EXTT8=
EXTT9=
EXTT10=
EXTT11=
EXTT12=
EXTT13=
EXTT14=
EXTT15=
EXTT16=
EXTT17=
EXTT18=
EXTT19=
EXTT20=
EXTT21=
EXTT22=
EXTT23=
PLAYORDER=
